HIERARCHY
ROOT Hips
{
	OFFSET -341.196167 -577.024780 88.986252
	CHANNELS 6 Xposition Yposition Zposition Zrotation Yrotation Xrotation
	JOINT Spine
	{
		OFFSET 0.000000 2.080078 8.814247
		CHANNELS 6 Xposition Yposition Zposition Zrotation Yrotation Xrotation
		JOINT Spine1
		{
			OFFSET 0.000000 0.000000 8.844139
			CHANNELS 6 Xposition Yposition Zposition Zrotation Yrotation Xrotation
			JOINT Spine2
			{
				OFFSET 0.000000 0.000000 11.682266
				CHANNELS 6 Xposition Yposition Zposition Zrotation Yrotation Xrotation
				JOINT Spine3
				{
					OFFSET 0.000000 0.000000 11.746704
					CHANNELS 6 Xposition Yposition Zposition Zrotation Yrotation Xrotation
					JOINT Neck
					{
						OFFSET 0.000000 0.000000 17.658264
						CHANNELS 6 Xposition Yposition Zposition Zrotation Yrotation Xrotation
						JOINT Neck1
						{
							OFFSET 0.000000 0.000000 5.101517
							CHANNELS 6 Xposition Yposition Zposition Zrotation Yrotation Xrotation
							JOINT Head
							{
								OFFSET 0.000000 0.000000 5.101517
								CHANNELS 6 Xposition Yposition Zposition Zrotation Yrotation Xrotation
								JOINT HeadEnd
								{
									OFFSET 0.000000 0.000000 11.655090
									CHANNELS 6 Xposition Yposition Zposition Zrotation Yrotation Xrotation
									End Site
									{
										OFFSET 0.000000 0.000000 0.100006
									}
								}
							}
						}
					}
					JOINT RightShoulder
					{
						OFFSET -2.625397 0.000000 11.175217
						CHANNELS 6 Xposition Yposition Zposition Zrotation Yrotation Xrotation
						JOINT RightArm
						{
							OFFSET 0.000000 0.000000 10.434723
							CHANNELS 6 Xposition Yposition Zposition Zrotation Yrotation Xrotation
							JOINT RightForeArm
							{
								OFFSET 0.000000 0.000000 29.628418
								CHANNELS 6 Xposition Yposition Zposition Zrotation Yrotation Xrotation
								JOINT RightHand
								{
									OFFSET 0.000000 0.000000 22.857605
									CHANNELS 6 Xposition Yposition Zposition Zrotation Yrotation Xrotation
									JOINT RightHandThumb1
									{
										OFFSET -2.867310 -2.944275 3.959564
										CHANNELS 6 Xposition Yposition Zposition Zrotation Yrotation Xrotation
										JOINT RightHandThumb2
										{
											OFFSET 0.000000 0.000000 3.350403
											CHANNELS 6 Xposition Yposition Zposition Zrotation Yrotation Xrotation
											JOINT RightHandThumb3
											{
												OFFSET 0.000000 0.000000 3.756516
												CHANNELS 6 Xposition Yposition Zposition Zrotation Yrotation Xrotation
												JOINT RightHandThumb4
												{
													OFFSET 0.000000 0.000000 3.147339
													CHANNELS 6 Xposition Yposition Zposition Zrotation Yrotation Xrotation
													End Site
													{
														OFFSET 0.000000 0.000000 0.100006
													}
												}
											}
										}
									}
									JOINT RightHandIndex1
									{
										OFFSET -0.086761 -2.345276 10.030899
										CHANNELS 6 Xposition Yposition Zposition Zrotation Yrotation Xrotation
										JOINT RightHandIndex2
										{
											OFFSET 0.000000 0.000000 4.061096
											CHANNELS 6 Xposition Yposition Zposition Zrotation Yrotation Xrotation
											JOINT RightHandIndex3
											{
												OFFSET 0.000000 0.000000 3.248871
												CHANNELS 6 Xposition Yposition Zposition Zrotation Yrotation Xrotation
												JOINT RightHandIndex4
												{
													OFFSET 0.000000 0.000000 2.639709
													CHANNELS 6 Xposition Yposition Zposition Zrotation Yrotation Xrotation
													End Site
													{
														OFFSET 0.000000 0.000000 0.100006
													}
												}
											}
										}
									}
									JOINT RightHandMiddle1
									{
										OFFSET 0.104095 -0.006775 9.502945
										CHANNELS 6 Xposition Yposition Zposition Zrotation Yrotation Xrotation
										JOINT RightHandMiddle2
										{
											OFFSET 0.000000 0.000000 4.568726
											CHANNELS 6 Xposition Yposition Zposition Zrotation Yrotation Xrotation
											JOINT RightHandMiddle3
											{
												OFFSET 0.000000 0.000000 3.654984
												CHANNELS 6 Xposition Yposition Zposition Zrotation Yrotation Xrotation
												JOINT RightHandMiddle4
												{
													OFFSET 0.000000 0.000000 2.741241
													CHANNELS 6 Xposition Yposition Zposition Zrotation Yrotation Xrotation
													End Site
													{
														OFFSET 0.000000 0.000000 0.100006
													}
												}
											}
										}
									}
									JOINT RightHandRing1
									{
										OFFSET 0.086761 2.267456 8.921707
										CHANNELS 6 Xposition Yposition Zposition Zrotation Yrotation Xrotation
										JOINT RightHandRing2
										{
											OFFSET 0.000000 0.000000 4.061096
											CHANNELS 6 Xposition Yposition Zposition Zrotation Yrotation Xrotation
											JOINT RightHandRing3
											{
												OFFSET 0.000000 0.000000 3.654984
												CHANNELS 6 Xposition Yposition Zposition Zrotation Yrotation Xrotation
												JOINT RightHandRing4
												{
													OFFSET 0.000000 0.000000 2.741241
													CHANNELS 6 Xposition Yposition Zposition Zrotation Yrotation Xrotation
													End Site
													{
														OFFSET 0.000000 0.000000 0.100006
													}
												}
											}
										}
									}
									JOINT RightHandPinky1
									{
										OFFSET -0.173492 4.467224 7.976990
										CHANNELS 6 Xposition Yposition Zposition Zrotation Yrotation Xrotation
										JOINT RightHandPinky2
										{
											OFFSET 0.000000 0.000000 3.350403
											CHANNELS 6 Xposition Yposition Zposition Zrotation Yrotation Xrotation
											JOINT RightHandPinky3
											{
												OFFSET 0.000000 0.000000 2.842758
												CHANNELS 6 Xposition Yposition Zposition Zrotation Yrotation Xrotation
												JOINT RightHandPinky4
												{
													OFFSET 0.000000 0.000000 2.639709
													CHANNELS 6 Xposition Yposition Zposition Zrotation Yrotation Xrotation
													End Site
													{
														OFFSET 0.000000 0.000000 0.100006
													}
												}
											}
										}
									}
									JOINT RightForeArmEnd
									{
										OFFSET 0.000000 0.000000 0.000000
										CHANNELS 6 Xposition Yposition Zposition Zrotation Yrotation Xrotation
										End Site
										{
											OFFSET 0.000000 0.000000 0.100006
										}
									}
								}
								JOINT RightArmEnd
								{
									OFFSET 0.000000 0.000000 0.000000
									CHANNELS 6 Xposition Yposition Zposition Zrotation Yrotation Xrotation
									End Site
									{
										OFFSET 0.000000 0.000000 0.100006
									}
								}
							}
						}
					}
					JOINT LeftShoulder
					{
						OFFSET 2.625397 0.000000 11.175217
						CHANNELS 6 Xposition Yposition Zposition Zrotation Yrotation Xrotation
						JOINT LeftArm
						{
							OFFSET 0.000000 0.000000 10.813629
							CHANNELS 6 Xposition Yposition Zposition Zrotation Yrotation Xrotation
							JOINT LeftForeArm
							{
								OFFSET 0.000000 0.000000 28.724777
								CHANNELS 6 Xposition Yposition Zposition Zrotation Yrotation Xrotation
								JOINT LeftHand
								{
									OFFSET 0.644379 0.328857 25.716171
									CHANNELS 6 Xposition Yposition Zposition Zrotation Yrotation Xrotation
									JOINT LeftHandThumb1
									{
										OFFSET 2.867310 -2.944275 3.959564
										CHANNELS 6 Xposition Yposition Zposition Zrotation Yrotation Xrotation
										JOINT LeftHandThumb2
										{
											OFFSET 0.000000 0.000000 3.350403
											CHANNELS 6 Xposition Yposition Zposition Zrotation Yrotation Xrotation
											JOINT LeftHandThumb3
											{
												OFFSET 0.000000 0.000000 3.756516
												CHANNELS 6 Xposition Yposition Zposition Zrotation Yrotation Xrotation
												JOINT LeftHandThumb4
												{
													OFFSET 0.000000 0.000000 3.100006
													CHANNELS 6 Xposition Yposition Zposition Zrotation Yrotation Xrotation
													End Site
													{
														OFFSET 0.000000 0.000000 0.100006
													}
												}
											}
										}
									}
									JOINT LeftHandIndex1
									{
										OFFSET 0.086761 -2.345276 10.030899
										CHANNELS 6 Xposition Yposition Zposition Zrotation Yrotation Xrotation
										JOINT LeftHandIndex2
										{
											OFFSET 0.000000 0.000000 4.061096
											CHANNELS 6 Xposition Yposition Zposition Zrotation Yrotation Xrotation
											JOINT LeftHandIndex3
											{
												OFFSET 0.000000 0.000000 3.248871
												CHANNELS 6 Xposition Yposition Zposition Zrotation Yrotation Xrotation
												JOINT LeftHandIndex4
												{
													OFFSET 0.000000 0.000000 2.639709
													CHANNELS 6 Xposition Yposition Zposition Zrotation Yrotation Xrotation
													End Site
													{
														OFFSET 0.000000 0.000000 0.100006
													}
												}
											}
										}
									}
									JOINT LeftHandMiddle1
									{
										OFFSET -0.104095 -0.006775 9.502945
										CHANNELS 6 Xposition Yposition Zposition Zrotation Yrotation Xrotation
										JOINT LeftHandMiddle2
										{
											OFFSET 0.000000 0.000000 4.568726
											CHANNELS 6 Xposition Yposition Zposition Zrotation Yrotation Xrotation
											JOINT LeftHandMiddle3
											{
												OFFSET 0.000000 0.000000 3.654984
												CHANNELS 6 Xposition Yposition Zposition Zrotation Yrotation Xrotation
												JOINT LeftHandMiddle4
												{
													OFFSET 0.000000 0.000000 2.741241
													CHANNELS 6 Xposition Yposition Zposition Zrotation Yrotation Xrotation
													End Site
													{
														OFFSET 0.000000 0.000000 0.100006
													}
												}
											}
										}
									}
									JOINT LeftHandRing1
									{
										OFFSET -0.086761 2.267456 8.921707
										CHANNELS 6 Xposition Yposition Zposition Zrotation Yrotation Xrotation
										JOINT LeftHandRing2
										{
											OFFSET 0.000000 0.000000 4.061096
											CHANNELS 6 Xposition Yposition Zposition Zrotation Yrotation Xrotation
											JOINT LeftHandRing3
											{
												OFFSET 0.000000 0.000000 3.654984
												CHANNELS 6 Xposition Yposition Zposition Zrotation Yrotation Xrotation
												JOINT LeftHandRing4
												{
													OFFSET 0.000000 0.000000 2.741241
													CHANNELS 6 Xposition Yposition Zposition Zrotation Yrotation Xrotation
													End Site
													{
														OFFSET 0.000000 0.000000 0.100006
													}
												}
											}
										}
									}
									JOINT LeftHandPinky1
									{
										OFFSET 0.173492 4.467224 7.976990
										CHANNELS 6 Xposition Yposition Zposition Zrotation Yrotation Xrotation
										JOINT LeftHandPinky2
										{
											OFFSET 0.000000 0.000000 3.350403
											CHANNELS 6 Xposition Yposition Zposition Zrotation Yrotation Xrotation
											JOINT LeftHandPinky3
											{
												OFFSET 0.000000 0.000000 2.842758
												CHANNELS 6 Xposition Yposition Zposition Zrotation Yrotation Xrotation
												JOINT LeftHandPinky4
												{
													OFFSET 0.000000 0.000000 2.639709
													CHANNELS 6 Xposition Yposition Zposition Zrotation Yrotation Xrotation
													End Site
													{
														OFFSET 0.000000 0.000000 0.100006
													}
												}
											}
										}
									}
									JOINT LeftForeArmEnd
									{
										OFFSET 0.000000 0.000000 0.000000
										CHANNELS 6 Xposition Yposition Zposition Zrotation Yrotation Xrotation
										End Site
										{
											OFFSET 0.000000 0.000000 0.100006
										}
									}
								}
								JOINT LeftArmEnd
								{
									OFFSET 0.000000 0.000000 0.000000
									CHANNELS 6 Xposition Yposition Zposition Zrotation Yrotation Xrotation
									End Site
									{
										OFFSET 0.000000 0.000000 0.100006
									}
								}
							}
						}
					}
				}
			}
		}
	}
	JOINT RightUpLeg
	{
		OFFSET -11.289948 0.000000 0.000000
		CHANNELS 6 Xposition Yposition Zposition Zrotation Yrotation Xrotation
		JOINT RightLeg
		{
			OFFSET 0.000000 0.000000 -38.200329
			CHANNELS 6 Xposition Yposition Zposition Zrotation Yrotation Xrotation
			JOINT RightFoot
			{
				OFFSET 0.000000 0.000000 -39.900856
				CHANNELS 6 Xposition Yposition Zposition Zrotation Yrotation Xrotation
				JOINT RightToeBase
				{
					OFFSET 0.000000 -15.261658 0.000001
					CHANNELS 6 Xposition Yposition Zposition Zrotation Yrotation Xrotation
					JOINT RightToeBaseEnd
					{
						OFFSET 0.000000 -7.370728 0.000000
						CHANNELS 6 Xposition Yposition Zposition Zrotation Yrotation Xrotation
						End Site
						{
							OFFSET 0.000000 0.000000 0.100000
						}
					}
				}
				JOINT RightLegEnd
				{
					OFFSET 0.000000 0.000000 0.000000
					CHANNELS 6 Xposition Yposition Zposition Zrotation Yrotation Xrotation
					End Site
					{
						OFFSET 0.000000 0.000000 0.100000
					}
				}
			}
			JOINT RightUpLegEnd
			{
				OFFSET 0.000000 0.000000 0.000000
				CHANNELS 6 Xposition Yposition Zposition Zrotation Yrotation Xrotation
				End Site
				{
					OFFSET 0.000000 0.000000 0.099998
				}
			}
		}
	}
	JOINT LeftUpLeg
	{
		OFFSET 11.315674 0.000000 0.000000
		CHANNELS 6 Xposition Yposition Zposition Zrotation Yrotation Xrotation
		JOINT LeftLeg
		{
			OFFSET 0.000000 0.000000 -38.200329
			CHANNELS 6 Xposition Yposition Zposition Zrotation Yrotation Xrotation
			JOINT LeftFoot
			{
				OFFSET 0.000000 0.000000 -39.900856
				CHANNELS 6 Xposition Yposition Zposition Zrotation Yrotation Xrotation
				JOINT LeftToeBase
				{
					OFFSET 0.000000 -15.261658 0.000001
					CHANNELS 6 Xposition Yposition Zposition Zrotation Yrotation Xrotation
					JOINT LeftToeBaseEnd
					{
						OFFSET 0.000000 -7.539978 0.000000
						CHANNELS 6 Xposition Yposition Zposition Zrotation Yrotation Xrotation
						End Site
						{
							OFFSET 0.000000 0.000000 0.100000
						}
					}
				}
				JOINT LeftLegEnd
				{
					OFFSET 0.000000 0.000000 0.000000
					CHANNELS 6 Xposition Yposition Zposition Zrotation Yrotation Xrotation
					End Site
					{
						OFFSET 0.000000 0.000000 0.100000
					}
				}
			}
			JOINT LeftUpLegEnd
			{
				OFFSET 0.000000 0.000000 0.000000
				CHANNELS 6 Xposition Yposition Zposition Zrotation Yrotation Xrotation
				End Site
				{
					OFFSET 0.000000 0.000000 0.099998
				}
			}
		}
	}
}
MOTION
Frames: 2
Frame Time: 0.016667
14.525787 -1.004272 89.936615 46.884351 6.968781 -9.912368 0.000011 2.080057 8.814246 0.311301 -2.265478 7.055090 0.000003 0.000015 8.844152 0.380195 -0.915873 2.515633 0.000013 -0.000015 11.682289 6.393521 2.024729 7.126331 0.000009 0.000027 11.746708 3.283436 1.327961 3.569142 -0.000008 0.000002 17.658287 -11.957725 -30.402063 -1.305014 -0.000006 -0.000001 5.101492 -0.930899 -2.800515 -9.699879 -0.000018 0.000029 5.101503 -0.450267 -1.169312 -13.688302 -0.000013 -0.000006 11.655042 0.000001 0.000003 0.000002 -2.625424 -0.000035 11.175211 16.698243 -87.557923 0.092709 0.000046 -0.000016 10.434715 -50.126806 -20.715438 29.675980 0.000015 -0.000015 29.628456 20.433208 0.993273 67.965703 -0.000050 -0.000044 22.857597 -21.476785 -13.360209 1.952948 -2.867311 -2.944305 3.959564 32.272825 -25.625201 39.728874 0.000015 -0.000015 3.350365 -31.213309 10.760103 -52.784648 0.000000 -0.000015 3.756569 -20.711039 10.637273 -36.005547 -0.000015 0.000000 3.147342 -0.000000 -0.000002 0.000001 -0.086774 -2.345262 10.030926 -68.215497 -70.111427 68.626660 0.000000 -0.000021 4.061096 -6.313499 -57.020509 12.508444 0.000004 0.000010 3.248863 -6.813524 -57.020509 12.508464 -0.000033 -0.000007 2.639729 0.000001 0.000001 -0.000000 0.104109 -0.006784 9.502909 -59.467076 -74.393505 63.040952 -0.000013 0.000012 4.568708 -2.089876 -57.500603 4.718792 -0.000018 0.000000 3.654989 -2.589889 -57.500610 4.718806 0.000015 0.000004 2.741275 -0.000001 0.000001 -0.000000 0.086733 2.267460 8.921701 73.720677 -95.802200 -63.581705 -0.000006 -0.000026 4.061106 3.325564 -63.360940 -7.003628 -0.000017 0.000002 3.654976 4.325456 -63.360960 -7.003512 0.000009 -0.000013 2.741261 0.000002 0.000000 -0.000000 -0.173534 4.467246 7.976997 -17.168778 -97.897941 35.729273 0.000000 0.000038 3.350395 11.952662 -63.108721 -22.537889 -0.000015 -0.000015 2.842743 13.953078 -63.109527 -22.538429 -0.000013 -0.000014 2.639706 0.000002 0.000001 0.000001 -0.000005 0.000004 -0.000023 -0.000001 -0.000007 -0.000000 -0.000031 -0.000008 -0.000005 0.000002 0.000002 -0.000000 2.625393 -0.000037 11.175238 -10.980723 86.826785 -0.339797 0.000023 -0.000020 10.813606 51.008532 44.950202 47.049693 -0.000029 -0.000015 28.724758 -3.909951 0.042908 40.694527 0.644360 0.328877 25.716179 7.902604 -10.890242 -3.689834 2.867321 -2.944260 3.959595 -32.430882 26.206085 38.950199 0.000008 -0.000015 3.350410 32.457684 -10.558218 -54.776478 0.000015 0.000000 3.756504 21.577430 -10.761485 -37.395146 0.000012 0.000007 3.100012 -0.000001 -0.000001 0.000003 0.086769 -2.345255 10.030886 9.949802 81.202849 1.281925 -0.000038 0.000038 4.061119 -6.316411 57.027664 -12.511917 -0.000011 0.000002 3.248894 -6.816423 57.027654 -12.511936 0.000024 0.000002 2.639711 0.000001 -0.000000 -0.000002 -0.104118 -0.006756 9.502926 34.242378 78.609351 30.020430 0.000027 0.000011 4.568707 -1.943787 56.518692 -4.544632 -0.000010 -0.000005 3.654997 -2.443759 56.518688 -4.544610 -0.000021 0.000007 2.741237 -0.000001 -0.000001 0.000001 -0.086789 2.267456 8.921704 77.928968 75.170214 79.850096 0.000021 0.000017 4.061096 2.677567 60.751070 6.270254 0.000021 -0.000008 3.655003 3.677461 60.750913 6.270180 0.000001 0.000000 2.741248 -0.000000 -0.000000 -0.000001 0.173502 4.467190 7.976985 79.291154 66.823497 89.929727 -0.000015 -0.000105 3.350464 9.275860 59.777133 19.491797 -0.000008 -0.000072 2.842789 11.275886 59.777126 19.491818 -0.000037 -0.000065 2.639725 0.000000 0.000000 -0.000001 -0.000000 0.000008 0.000007 -0.000001 0.000002 0.000000 -0.000002 0.000004 -0.000014 0.000000 -0.000001 0.000005 -11.289945 0.000023 0.000001 -15.880099 -0.094539 10.006838 -0.000003 0.000025 -38.200333 -1.614768 0.236239 8.321074 -0.000031 0.000032 -39.900871 -10.059136 -2.659218 30.300198 0.000004 -15.261654 0.000021 1.668038 1.108509 -21.924525 0.000003 -7.370729 0.000001 0.000000 -0.000000 -0.000001 -0.000010 0.000002 0.000002 -0.000000 0.000000 0.000000 0.000006 -0.000023 0.000002 0.000004 -0.000000 0.000000 11.315683 0.000010 0.000011 -13.226970 -3.094332 0.939913 -0.000001 0.000000 -38.200329 0.283982 -0.085140 16.689861 -0.000011 -0.000040 -39.900841 -4.211756 -4.841579 20.681657 -0.000007 -15.261683 0.000013 -0.078050 -0.523526 -19.566434 -0.000043 -7.539985 0.000000 0.000001 -0.000000 0.000000 -0.000027 0.000046 0.000001 0.000003 -0.000001 0.000002 0.000024 0.000009 -0.000004 -0.000002 -0.000000 -0.000000 
14.468903 -0.931946 89.835266 46.913858 6.908152 -10.135990 0.000015 2.080073 8.814236 0.318596 -1.951227 7.194473 0.000001 -0.000004 8.844124 0.415850 -0.686972 2.621675 0.000013 0.000025 11.682265 6.351313 2.178173 7.932444 0.000007 0.000029 11.746691 3.193422 1.176169 3.721333 -0.000008 0.000017 17.658268 -12.647742 -31.332407 -1.681169 0.000009 0.000000 5.101530 -1.085687 -2.984536 -10.235193 0.000011 0.000004 5.101515 -0.375995 -1.420498 -14.173540 -0.000013 -0.000006 11.655089 0.000001 0.000001 -0.000001 -2.625415 -0.000010 11.175206 16.320575 -89.506364 0.088453 0.000015 0.000065 10.434708 -49.387360 -24.414880 31.743868 0.000004 -0.000023 29.628468 20.338913 1.033592 66.773541 -0.000076 -0.000049 22.857586 -24.642269 -11.433379 2.025819 -2.867319 -2.944260 3.959564 32.223456 -25.431982 39.988367 -0.000023 0.000000 3.350388 -30.795588 10.806510 -52.112195 -0.000023 -0.000031 3.756565 -20.423176 10.591215 -35.543082 -0.000013 0.000001 3.147356 -0.000001 -0.000000 -0.000002 -0.086793 -2.345248 10.030918 -67.131430 -69.960084 67.452271 0.000004 0.000019 4.061104 -6.199150 -56.737278 12.371919 -0.000011 0.000004 3.248886 -6.699147 -56.737272 12.371910 -0.000005 -0.000009 2.639703 0.000001 0.000000 0.000001 0.104105 -0.006769 9.502977 -57.843663 -74.130188 61.452639 -0.000004 -0.000009 4.568729 -2.035552 -57.142732 4.654247 0.000020 -0.000006 3.655005 -2.535560 -57.142718 4.654257 -0.000004 -0.000014 2.741238 0.000002 0.000000 0.000000 0.086734 2.267418 8.921696 81.920305 -95.628235 -71.654770 -0.000055 0.000013 4.061102 3.169779 -62.779404 -6.828878 -0.000029 0.000016 3.654991 4.169792 -62.779417 -6.828900 -0.000003 -0.000004 2.741246 0.000001 -0.000000 0.000001 -0.173466 4.467259 7.976995 -19.782413 -96.823054 38.511602 0.000000 -0.000017 3.350410 11.307225 -62.383847 -21.811893 0.000015 -0.000004 2.842758 13.307190 -62.383833 -21.811847 -0.000006 0.000003 2.639723 -0.000001 0.000001 0.000001 -0.000015 0.000010 -0.000002 -0.000002 0.000001 0.000001 -0.000005 -0.000005 -0.000005 -0.000000 0.000002 0.000000 2.625393 -0.000001 11.175210 -11.375296 87.465811 -0.423292 0.000015 0.000025 10.813622 47.543840 45.317711 46.791194 -0.000024 -0.000061 28.724743 -3.292343 0.097375 38.546958 0.644295 0.328861 25.716183 6.739379 -11.272608 -4.751284 2.867319 -2.944290 3.959579 -32.376541 26.012275 39.209801 0.000008 0.000000 3.350357 32.043228 -10.625964 -54.110504 0.000008 0.000000 3.756516 21.288252 -10.722371 -36.931676 -0.000012 -0.000002 3.100001 0.000001 0.000001 -0.000002 0.086761 -2.345250 10.030891 9.053842 80.446446 0.370695 0.000015 -0.000053 4.061096 -6.110775 56.514689 -12.266082 0.000015 -0.000013 3.248886 -6.610763 56.514679 -12.266070 0.000013 -0.000001 2.639699 -0.000000 0.000003 0.000003 -0.104073 -0.006757 9.502945 32.215752 78.007372 27.912611 -0.000013 -0.000074 4.568720 -1.872644 56.017049 -4.459096 0.000021 0.000029 3.654970 -2.372679 56.017021 -4.459127 0.000012 -0.000001 2.741243 0.000000 0.000001 0.000002 -0.086736 2.267467 8.921716 75.534003 75.019984 77.004741 0.000004 -0.000056 4.061075 2.574069 60.283065 6.151385 -0.000004 0.000012 3.654970 3.574050 60.283038 6.151366 -0.000001 -0.000000 2.741246 -0.000000 -0.000000 0.000001 0.173500 4.467186 7.976975 78.380526 66.711639 87.996209 -0.000015 -0.000090 3.350449 9.002757 59.382962 19.175087 -0.000008 -0.000088 2.842796 11.002663 59.382956 19.174991 -0.000024 -0.000071 2.639716 0.000000 -0.000000 -0.000001 0.000020 0.000009 -0.000005 -0.000001 -0.000003 0.000000 0.000020 -0.000001 -0.000002 0.000000 -0.000000 0.000002 -11.289955 0.000031 -0.000008 -16.586628 0.491494 10.208847 -0.000011 0.000034 -38.200325 -1.764935 0.258050 8.315554 -0.000001 -0.000025 -39.900879 -8.974292 -3.743167 29.198338 0.000002 -15.261652 -0.000012 2.098666 0.949341 -20.864006 0.000009 -7.370737 0.000001 0.000001 0.000000 -0.000002 0.000003 0.000004 0.000002 -0.000001 0.000001 -0.000001 -0.000003 0.000017 -0.000009 -0.000003 0.000000 -0.000000 11.315649 -0.000009 0.000005 -13.570220 -2.937011 1.087240 0.000013 0.000015 -38.200344 0.306904 -0.092255 16.771473 -0.000019 -0.000093 -39.900852 -3.838907 -4.613170 20.344436 0.000012 -15.261705 0.000006 -0.096273 -0.589235 -19.401183 -0.000041 -7.539928 0.000000 0.000002 -0.000000 -0.000001 -0.000002 0.000057 0.000001 0.000001 0.000002 -0.000000 0.000015 0.000003 0.000004 -0.000001 0.000000 0.000000 
